<svg width="191" height="55" viewBox="0 0 191 55" fill="none" xmlns="http://www.w3.org/2000/svg">
<path d="M33.2896 28.7693C33.263 28.7396 33.2398 28.7142 33.2129 28.6845H33.21L21.5681 16.3267L31.248 5.96474H31.2544C31.3237 5.88767 31.3847 5.82144 31.4521 5.74687L33.767 3.2688C35.5539 1.44684 35.9615 1.30994 35.9615 1.30994H35.5971H35.4335H33.5987H29.6468L18.9183 13.4232L8.32061 1.30994H4.23636H2.40122H2.32663H1.87324C1.87324 1.30994 2.44544 1.49581 5.2521 4.51034L6.43166 5.80058C6.48281 5.85762 6.52809 5.90687 6.5803 5.96474H6.5819L16.0954 16.372L4.71719 28.6845H4.70707C4.53711 28.8739 4.38074 29.0453 4.22251 29.2198L3.03815 30.5014C0.531977 33.1595 0 33.3395 0 33.3395H0.4153H0.527981H2.36312H6.36613L18.8749 19.3209L31.471 33.3395H35.5571H37.392H37.595H37.92C37.92 33.3395 37.5822 33.2249 36.1829 31.8403L33.2896 28.7693Z" fill="black"/>
<path d="M188.394 17.597C186.657 16.1154 184.196 15.208 181.01 14.8749L171.498 13.9222C170.571 13.8312 169.805 13.718 169.196 13.5819C168.589 13.4456 167.951 13.2344 167.285 12.9467C166.619 12.6595 166.119 12.2363 165.787 11.6765C165.454 11.1172 165.287 10.4285 165.287 9.61216C165.287 8.58432 165.591 7.69977 166.2 6.95796C166.808 6.21727 167.626 5.66495 168.654 5.30211C169.681 4.939 170.745 4.67494 171.846 4.50827C172.946 4.34244 174.119 4.25869 175.364 4.25869C177.941 4.25869 180.099 4.6218 181.836 5.34747C182.042 5.43344 182.245 5.52555 182.448 5.62182L182.445 5.62293C186.416 7.66749 185.788 9.02367 185.788 9.02367L186.272 8.80385L187.967 8.06872L187.965 8.06427L190.653 6.93542C187.757 2.64123 182.646 0.493165 175.321 0.493165C171.006 0.493165 167.633 1.18934 165.201 2.5803C162.362 4.15295 160.944 6.57259 160.944 9.83893C160.944 12.0165 161.667 13.8017 163.116 15.1924C163.839 15.8886 164.744 16.4328 165.831 16.8257C166.916 17.2192 167.944 17.4835 168.914 17.6196C169.884 17.7556 171.614 17.9448 174.105 18.1866L178.795 18.6402C179.896 18.7312 180.829 18.8525 181.597 19.0033C182.364 19.1549 183.182 19.4045 184.051 19.7518C184.92 20.0999 185.578 20.6065 186.027 21.2716C186.476 21.9374 186.7 22.7538 186.7 23.7215C186.7 25.4759 186.005 26.913 184.616 28.0313C182.791 29.4832 180.055 30.2091 176.406 30.2091C172.932 30.2091 169.993 29.6952 167.59 28.6668C167.203 28.5054 166.843 28.3368 166.502 28.1635C166.08 27.9406 165.703 27.7247 165.383 27.5199C165.381 27.5182 165.379 27.5171 165.376 27.5154C162.839 25.8868 163.319 24.849 163.319 24.849L162.835 25.0685L161.142 25.8036L158.686 26.8518C160.133 29.3324 162.421 31.1619 165.548 32.3413C168.675 33.5211 172.15 34.1107 175.972 34.1107C178.81 34.1107 181.256 33.8005 183.313 33.1805C185.368 32.5612 186.932 31.7289 188.003 30.6858C189.075 29.6421 189.842 28.5461 190.306 27.3963C190.768 26.2472 191 25.0076 191 23.6762C191 21.1057 190.132 19.0792 188.394 17.597Z" fill="black"/>
<path d="M74.1533 1.30994H72.3181H69.9939C69.9939 2.39872 70.0373 11.2158 70.1244 27.7593L46.279 1.30994H41.8053V28.6845C41.8053 33.0983 41.2773 33.3395 41.2773 33.3395H41.8053H43.6405H45.9748C45.9748 31.7674 45.9458 22.9353 45.888 6.84484L69.9071 33.3395H74.1637V5.0034C74.2345 1.52336 74.681 1.30994 74.681 1.30994H74.1637H74.1533Z" fill="black"/>
<path d="M122.921 1.30994H122.395H122.394H120.559H120.097H118.262H118.261H117.734C117.734 1.30994 118.248 1.55285 118.261 5.80336V28.8461C118.248 33.0966 117.734 33.3395 117.734 33.3395H118.261H118.262H120.097H120.559H122.394H122.395H122.921C122.921 33.3395 122.408 33.0966 122.395 28.8461V5.80336C122.408 1.55285 122.921 1.30994 122.921 1.30994Z" fill="black"/>
<path d="M150.907 29.0218H134.291V5.96483H134.294C134.294 1.55128 134.822 1.31003 134.822 1.31003H134.294H134.291H132.459H131.998H130.163H130.149H129.635C129.635 1.31003 130.07 1.52039 130.149 4.87188V29.7775C130.07 33.129 129.635 33.3394 129.635 33.3394H130.149H130.163H131.998H154.863V30.9425V29.0257V29.0218V28.4745C154.863 28.4745 154.641 28.9792 150.907 29.0218Z" fill="black"/>
<path d="M88.3828 21.7709L96.0271 5.89184L103.541 21.7709H88.3828ZM111.926 28.6845H111.898L98.4595 1.30994H93.8121L79.4772 30.192C77.8866 33.1539 77.3936 33.3395 77.3936 33.3395H77.9151H77.9213H79.7564H82.8231L86.5586 25.4457H105.409L109.144 33.3395H112.428H114.183H114.263H114.791C114.791 33.3395 114.142 33.0983 111.926 28.6845" fill="black"/>
<path d="M42.6166 51.3393C42.2088 51.0978 41.8859 50.7547 41.6475 50.3109C41.4091 49.8671 41.29 49.3598 41.29 48.7897C41.29 48.1904 41.4158 47.6709 41.6683 47.2304C41.9203 46.7902 42.2504 46.4563 42.6582 46.2293C43.0658 46.0017 43.5045 45.8881 43.9747 45.8881C44.3687 45.8881 44.7278 45.9583 45.0525 46.0988C45.3772 46.2398 45.6348 46.4366 45.825 46.6892C46.015 46.9421 46.1098 47.2271 46.1098 47.5443C46.1098 47.7827 46.0512 47.9653 45.9337 48.0913C45.816 48.2176 45.6607 48.2805 45.4673 48.2805C45.2805 48.2805 45.1252 48.2157 45.0011 48.0857C44.8764 47.9558 44.8141 47.7933 44.8141 47.5985C44.918 47.5265 44.9904 47.4472 45.032 47.3604C45.0735 47.2738 45.0941 47.1656 45.0941 47.0356C45.0941 46.7688 44.992 46.5501 44.7882 46.3806C44.5847 46.2109 44.3133 46.126 43.9747 46.126C43.4771 46.126 43.0953 46.3119 42.8292 46.6837C42.5631 47.0557 42.4302 47.5771 42.4302 48.2482V49.3309C42.4302 49.9736 42.5599 50.4895 42.8188 50.8791C43.0783 51.2692 43.4632 51.4639 43.9747 51.4639C44.4446 51.4639 44.8538 51.3251 45.2033 51.0471C45.5517 50.7692 45.768 50.403 45.8509 49.948H46.0893C45.9923 50.4823 45.7523 50.908 45.3687 51.2258C44.9854 51.5435 44.5203 51.7021 43.9747 51.7021C43.4771 51.7021 43.0245 51.5814 42.6166 51.3393Z" fill="black"/>
<path d="M49.4905 51.5939V51.3771L50.3197 51.2692V46.2563H49.4284L48.5267 48.0424H48.2363L48.3919 45.9853H53.2844L53.4399 48.0424H53.1496L52.2375 46.2563H51.3565V51.2692L52.1858 51.3771V51.5939H49.4905Z" fill="black"/>
<path d="M55.7918 54.4741C55.5705 54.2863 55.4599 54.0336 55.4599 53.7159C55.4599 53.4997 55.5204 53.3244 55.6416 53.1908C55.7623 53.0573 55.9125 52.9908 56.0923 52.9908C56.2234 52.9908 56.3411 53.0194 56.4447 53.0773C56.5486 53.1349 56.6315 53.2217 56.6935 53.3369C56.5899 53.4888 56.538 53.6471 56.538 53.8135C56.538 53.9579 56.583 54.077 56.673 54.1708C56.7625 54.2643 56.8766 54.3116 57.0148 54.3116C57.1808 54.3116 57.3241 54.2537 57.445 54.1382C57.5657 54.0228 57.6749 53.8205 57.7716 53.5319L58.3936 51.6696L55.9887 46.3212L55.2939 46.2129V45.9962H57.8752V46.2129L57.1496 46.3429L58.8806 50.2083L60.1142 46.4834L59.2229 46.2129V45.9962H61.0884V46.2129L60.3835 46.4834L58.0617 53.5319C57.9168 53.9579 57.742 54.2682 57.5385 54.463C57.3345 54.6583 57.0425 54.7554 56.6624 54.7554C56.303 54.7554 56.0129 54.6616 55.7918 54.4741Z" fill="black"/>
<path d="M66.1874 46.2564H64.4662L64.3527 47.9668C64.304 48.7319 64.2489 49.2968 64.1868 49.6613C64.1245 50.0261 64.0483 50.331 63.9588 50.5764C63.8964 50.7353 63.829 50.8703 63.7566 50.9824C63.6841 51.094 63.6218 51.1755 63.5698 51.2259C63.5182 51.2762 63.4851 51.3091 63.4715 51.3235H66.1874V46.2564ZM68.1152 53.3806H67.8248L66.913 51.594H63.5749L62.6732 53.3806H62.3828L62.5386 51.3235H62.87C63.0221 51.3235 63.1711 51.2548 63.316 51.1173C63.4609 50.9805 63.5887 50.7821 63.6996 50.5222C63.7963 50.284 63.8738 49.9879 63.9327 49.6343C63.9913 49.2806 64.0451 48.725 64.0933 47.9668L64.1764 46.6676L63.2331 46.2021V45.9854H67.9492V46.2021L67.2239 46.3101V51.3235H67.9599L68.1152 53.3806Z" fill="black"/>
<path d="M70.1094 51.5939V51.3771L70.8353 51.2692V46.31L70.1094 46.202V45.9853H72.4938V46.202L71.8715 46.31V50.5221L74.4944 46.5267V46.31L73.8721 46.202V45.9853H76.2565V46.202L75.5306 46.31V51.2692L76.2565 51.3771V51.5939H73.8721V51.3771L74.4944 51.2692V46.9814L71.8715 50.9876V51.2692L72.4938 51.3771V51.5939H70.1094Z" fill="black"/>
<path d="M82.3082 48.7464V46.2564H81.4373C81.0367 46.2564 80.741 46.3502 80.5508 46.5377C80.3609 46.7255 80.266 47.0249 80.266 47.4364V47.5769C80.266 47.9812 80.3627 48.2773 80.5561 48.4648C80.7495 48.6527 81.0156 48.7464 81.3542 48.7464H82.3082ZM78.6903 51.5776C78.5105 51.4949 78.3552 51.3739 78.2236 51.215L78.3795 51.0525C78.5039 51.1825 78.6245 51.2473 78.742 51.2473C78.8459 51.2473 78.9237 51.2081 78.9756 51.1282C79.0273 51.0492 79.0771 50.8903 79.1259 50.6521L79.2399 50.0241C79.302 49.6705 79.416 49.407 79.5817 49.2336C79.7476 49.0603 80.0172 48.9451 80.3904 48.8869V48.833C80.0241 48.7678 79.7253 48.6273 79.4935 48.4106C79.2623 48.1941 79.1464 47.8766 79.1464 47.4579C79.1464 46.9743 79.302 46.6081 79.6128 46.3591C79.9237 46.11 80.4283 45.9854 81.1265 45.9854H84.0911V46.213L83.3447 46.3212V51.2584L84.0911 51.3772V51.594H81.5617V51.3772L82.3082 51.2584V49.0169H81.3542C81.0572 49.0169 80.8273 49.0856 80.6651 49.2231C80.5026 49.36 80.3971 49.5873 80.3489 49.905L80.1936 50.8255C80.1382 51.143 80.038 51.3683 79.8928 51.5019C79.7476 51.6355 79.5231 51.7022 79.2189 51.7022C79.0462 51.7022 78.8702 51.6608 78.6903 51.5776" fill="black"/>
<path d="M89.8643 51.5939V51.3771L90.652 51.0524V46.2994L89.9263 46.202V45.9853H91.9373L93.5753 50.0349L95.2024 45.9853H97.11V46.202L96.3841 46.31V51.2692L97.11 51.3771V51.5939H94.7256V51.3771L95.3478 51.2692V46.3428L93.2018 51.5939H93.0774L90.9112 46.3428V51.0524L91.6989 51.3771V51.5939H89.8643Z" fill="black"/>
<path d="M101.892 51.0524C102.088 50.9369 102.256 50.7692 102.394 50.5491C102.532 50.3287 102.615 50.0638 102.643 49.7533V48.6272H101.948C101.382 48.6272 100.959 48.7591 100.679 49.0226C100.399 49.2858 100.259 49.6559 100.259 50.132C100.259 50.529 100.349 50.8109 100.528 50.9767C100.708 51.1428 100.971 51.2258 101.316 51.2258C101.503 51.2258 101.694 51.1682 101.892 51.0524V51.0524ZM99.6578 51.3393C99.3744 51.0978 99.2324 50.7385 99.2324 50.2619C99.2324 49.5835 99.5055 49.1019 100.052 48.817C100.597 48.5315 101.23 48.389 101.948 48.389H102.643V47.5554C102.643 47.18 102.603 46.8893 102.524 46.6837C102.444 46.478 102.322 46.3339 102.156 46.2507C101.99 46.1678 101.765 46.126 101.482 46.126C101.157 46.126 100.915 46.1928 100.756 46.3264C100.597 46.4599 100.518 46.6389 100.518 46.8623C100.518 47.0718 100.615 47.209 100.808 47.2738C100.808 47.4541 100.743 47.613 100.612 47.7505C100.48 47.8874 100.324 47.9558 100.145 47.9558C99.9511 47.9558 99.7956 47.9002 99.6784 47.7883C99.5609 47.6764 99.5023 47.505 99.5023 47.2738C99.5023 46.8553 99.7026 46.5198 100.103 46.2671C100.504 46.0142 101.005 45.8881 101.606 45.8881C102.988 45.8881 103.68 46.5161 103.68 47.7719V50.8682C103.68 51.0271 103.712 51.1481 103.778 51.2313C103.843 51.314 103.939 51.3557 104.063 51.3557C104.181 51.3557 104.274 51.314 104.343 51.2313C104.412 51.1481 104.447 51.0346 104.447 50.8902H104.664C104.664 51.1428 104.586 51.3412 104.431 51.4854C104.275 51.6298 104.059 51.7021 103.783 51.7021C103.465 51.7021 103.198 51.6064 102.98 51.4152C102.762 51.2238 102.65 50.9264 102.643 50.5221C102.477 50.8902 102.223 51.179 101.881 51.3883C101.539 51.5975 101.161 51.7021 100.746 51.7021C100.304 51.7021 99.941 51.5814 99.6578 51.3393" fill="black"/>
<path d="M106.65 51.5939V51.3771L107.376 51.2692V46.31L106.65 46.202V45.9853H109.034V46.202L108.413 46.31V48.6167H110.973V46.31L110.351 46.202V45.9853H112.735V46.202L112.01 46.31V51.2692L112.735 51.3771V51.5939H110.351V51.3771L110.973 51.2692V48.8871H108.413V51.2692L109.034 51.3771V51.5939H106.65Z" fill="black"/>
<path d="M114.889 51.5939V51.3771L115.615 51.2692V46.31L114.889 46.202V45.9853H117.273V46.202L116.651 46.31V50.5221L119.274 46.5267V46.31L118.651 46.202V45.9853H121.036V46.202L120.31 46.31V51.2692L121.036 51.3771V51.5939H118.651V51.3771L119.274 51.2692V46.9814L116.651 50.9876V51.2692L117.273 51.3771V51.5939H114.889Z" fill="black"/>
<path d="M127.346 51.5019C127.201 51.3683 127.101 51.143 127.045 50.8255L126.838 49.6774C126.776 49.3383 126.672 49.1001 126.527 48.9629C126.382 48.826 126.185 48.7534 125.936 48.7464H124.972V51.2584L125.719 51.3772V51.594H123.189V51.3772L123.936 51.2584V46.3212L123.189 46.213V45.9854H125.719V46.213L124.972 46.3212V48.4974H125.947C126.119 48.4829 126.258 48.4198 126.361 48.3079C126.465 48.196 126.551 48.0032 126.621 47.7286L126.807 46.9492C126.89 46.5956 127.002 46.3301 127.144 46.1532C127.285 45.9765 127.505 45.8883 127.802 45.8883C128.051 45.8883 128.244 45.9584 128.383 46.0989C128.521 46.24 128.59 46.4114 128.59 46.6134C128.59 46.8012 128.533 46.9617 128.419 47.0953C128.305 47.2289 128.151 47.2954 127.958 47.2954C127.854 47.2954 127.754 47.2776 127.657 47.2411C127.678 47.1763 127.688 47.1151 127.688 47.0575C127.688 46.9637 127.66 46.8841 127.605 46.8193C127.55 46.7545 127.481 46.7216 127.398 46.7216C127.232 46.7216 127.121 46.8229 127.066 47.0249L126.869 47.8046C126.779 48.1437 126.662 48.3819 126.517 48.5191C126.973 48.5625 127.306 48.6777 127.517 48.8655C127.728 49.0533 127.868 49.3383 127.937 49.7208L128.113 50.6521C128.161 50.8903 128.211 51.0492 128.263 51.1282C128.315 51.2081 128.393 51.2473 128.497 51.2473C128.614 51.2473 128.735 51.1825 128.86 51.0525L129.015 51.215C128.883 51.3739 128.728 51.4949 128.549 51.5776C128.369 51.6608 128.192 51.7022 128.02 51.7022C127.716 51.7022 127.491 51.6355 127.346 51.5019Z" fill="black"/>
<path d="M137.595 50.8903C137.858 50.5077 137.989 49.9877 137.989 49.331V48.2484C137.989 47.5845 137.858 47.0647 137.595 46.6893C137.332 46.314 136.949 46.1262 136.444 46.1262C135.94 46.1262 135.556 46.314 135.294 46.6893C135.031 47.0647 134.9 47.5845 134.9 48.2484V49.331C134.9 49.9877 135.031 50.5077 135.294 50.8903C135.556 51.2729 135.94 51.4641 136.444 51.4641C136.949 51.4641 137.332 51.2729 137.595 50.8903V50.8903ZM134.527 50.9012C134.036 50.3669 133.78 49.6958 133.76 48.8872H132.775V51.2693L133.397 51.3772V51.594H131.013V51.3772L131.739 51.2693V46.3101L131.013 46.2021V45.9854H133.397V46.2021L132.775 46.3101V48.6165H133.76C133.787 48.075 133.922 47.5987 134.164 47.1874C134.406 46.7759 134.726 46.4564 135.123 46.2291C135.52 46.0018 135.961 45.8883 136.444 45.8883C136.942 45.8883 137.397 46.011 137.808 46.2564C138.219 46.5015 138.542 46.8463 138.777 47.2904C139.012 47.7342 139.129 48.2339 139.129 48.7898C139.129 49.3458 139.012 49.8452 138.777 50.289C138.542 50.7334 138.22 51.0795 137.813 51.3286C137.405 51.5776 136.949 51.7022 136.444 51.7022C135.698 51.7022 135.059 51.4351 134.527 50.9012" fill="black"/>
<path d="M145.917 49.3421V48.2592C145.917 46.859 145.436 46.1587 144.476 46.1587C144.172 46.1587 143.895 46.2508 143.647 46.435C143.398 46.6189 143.201 46.866 143.056 47.1762C142.911 47.487 142.835 47.8223 142.828 48.1835V49.3421C142.828 49.7099 142.898 50.055 143.04 50.3761C143.182 50.6969 143.379 50.9534 143.631 51.1446C143.883 51.336 144.165 51.4315 144.476 51.4315C145.436 51.4315 145.917 50.7353 145.917 49.3421ZM141.065 54.4415L141.791 54.333V46.3212L141.065 46.2129V45.9962H142.828V47.1334C143 46.7433 143.234 46.4386 143.528 46.2182C143.821 45.9981 144.172 45.8882 144.58 45.8882C145.07 45.8882 145.502 46.0093 145.875 46.2508C146.248 46.4929 146.539 46.832 146.746 47.2683C146.953 47.7052 147.057 48.2158 147.057 48.8006C147.057 49.3852 146.953 49.8958 146.746 50.3327C146.539 50.7695 146.248 51.1067 145.875 51.3449C145.502 51.5831 145.07 51.7025 144.58 51.7025C144.172 51.7025 143.821 51.592 143.528 51.3722C143.234 51.1521 143 50.8508 142.828 50.4682V54.333L143.802 54.4415V54.6583H141.065V54.4415Z" fill="black"/>
<path d="M151.999 51.0524C152.196 50.9369 152.363 50.7692 152.502 50.5491C152.64 50.3287 152.723 50.0638 152.75 49.7533V48.6272H152.056C151.489 48.6272 151.066 48.7591 150.786 49.0226C150.506 49.2858 150.367 49.6559 150.367 50.132C150.367 50.529 150.456 50.8109 150.636 50.9767C150.815 51.1428 151.078 51.2258 151.424 51.2258C151.61 51.2258 151.802 51.1682 151.999 51.0524V51.0524ZM149.765 51.3393C149.482 51.0978 149.34 50.7385 149.34 50.2619C149.34 49.5835 149.613 49.1019 150.159 48.817C150.705 48.5315 151.337 48.389 152.056 48.389H152.75V47.5554C152.75 47.18 152.711 46.8893 152.631 46.6837C152.552 46.478 152.429 46.3339 152.263 46.2507C152.097 46.1678 151.873 46.126 151.589 46.126C151.264 46.126 151.023 46.1928 150.864 46.3264C150.705 46.4599 150.625 46.6389 150.625 46.8623C150.625 47.0718 150.722 47.209 150.916 47.2738C150.916 47.4541 150.85 47.613 150.719 47.7505C150.587 47.8874 150.432 47.9558 150.252 47.9558C150.059 47.9558 149.903 47.9002 149.786 47.7883C149.668 47.6764 149.61 47.505 149.61 47.2738C149.61 46.8553 149.81 46.5198 150.211 46.2671C150.612 46.0142 151.112 45.8881 151.714 45.8881C153.096 45.8881 153.787 46.5161 153.787 47.7719V50.8682C153.787 51.0271 153.82 51.1481 153.885 51.2313C153.951 51.314 154.046 51.3557 154.171 51.3557C154.288 51.3557 154.381 51.314 154.45 51.2313C154.519 51.1481 154.554 51.0346 154.554 50.8902H154.771C154.771 51.1428 154.694 51.3412 154.539 51.4854C154.383 51.6298 154.167 51.7021 153.891 51.7021C153.572 51.7021 153.305 51.6064 153.087 51.4152C152.87 51.2238 152.757 50.9264 152.75 50.5221C152.584 50.8902 152.33 51.179 151.989 51.3883C151.646 51.5975 151.268 51.7021 150.853 51.7021C150.411 51.7021 150.048 51.5814 149.765 51.3393" fill="black"/>
</svg>
